<svg width="264" height="37" viewBox="0 0 264 37" fill="none" xmlns="http://www.w3.org/2000/svg">
<g filter="url(#filter0_d_33515_806)">
<path d="M55.3 0.100006L52.5 5.00001H49.8L48.9 6.40001H51.7L45.6 16.8C44.3 19 45.2 21 47.7 21C49.5 21 51.4 19.7 53.3 17.9C53.3 21.7 58.6 22.4 61.9 18.4H62.6C64.4 18.4 67.2 17.3 68.8 15.5C68.6 15.1 68.1 14.6 67.7 14.5L67.5 14.7C66.1 16.2 64.5 16.9 62.9 16.9L65.7 12.1C67.5 9.00001 65.8 6.00001 63 6.00001C60.7 6.00001 58.9 6.90001 57.1 9.90001L55.6 12.5L54.4 14.6L54.2 14.8C52 17.3 49.9 19.3 48.6 19.3C47.9 19.3 47.6 18.8 48.3 17.7L54.8 6.50001H57.3L58 5.00001H55.5L58.3 0.100006H55.3ZM62.8 7.90001C63.8 8.00001 64.2 9.20001 63.2 10.9L61 14.6H60.9C59.9 14.6 59.1 15.4 59.1 16.4C59.1 16.8 59.2 17.1 59.4 17.4V17.5C58 19.9 54.5 19.5 56.3 16.4L58.6 12.5L60.1 10.1C61 8.50001 62.1 7.90001 62.8 7.90001ZM84.8 0.100006L82 5.00001H79.3L78.4 6.40001H81.2L75 16.8C73.7 19 74.6 21 77.1 21C78.3 21 79.6 20.4 81 19.4L80.2 20.7H83.2L87.8 12.8C92.4 7.00001 94.5 7.80001 93.2 10L89.3 16.7C88 18.9 88.9 20.9 91.4 20.9C93.2 20.9 95.2 19.5 97.1 17.7C97.2 19.6 98.8 20.9 101.2 20.9C104.6 20.9 108 18.3 110.5 15.4C110.3 15 109.8 14.5 109.4 14.4L109.2 14.6C107 17.1 104.2 19.1 102.1 19.1C100.2 19.1 99.1 18 100.5 15.5L100.8 15C102.7 15.8 106.4 15.4 108.7 11.6L109.1 10.9C110.7 8.10001 109.2 6.10001 106.7 6.10001C104.3 6.10001 102.3 7.40001 101 9.50001L98.1 14.5L97.9 14.7C95.7 17.2 93.6 19.2 92.3 19.2C91.6 19.2 91.3 18.7 91.9 17.6L96.3 10.1C97.6 7.80001 96.4 6.20001 94.7 6.20001C93.4 6.20001 92 6.90001 90.5 8.50001L95.3 0.200008H92.3L83.9 14.6L83.7 14.8C81.5 17.3 79.4 19.3 78.1 19.3C77.4 19.3 77.1 18.8 77.8 17.7L84.3 6.50001H86.8L87.7 5.10001H85.2L88 0.200008L84.8 0.100006ZM106.1 8.30001C107.1 8.20001 107.6 9.20001 106.6 10.9L106.2 11.6C104.8 14 102.8 14 101.7 13.6L103.6 10.2C104.3 9 105.3 8.40001 106.1 8.30001ZM150.4 2.90001C148.7 4.40001 148.5 6.10001 149.6 7.50001L149.9 7.80001C148.6 9.70001 146.8 12.2 144.8 14.5L144.6 14.7C143.2 16.2 141.6 16.9 140 16.9L142.8 12.1C144.6 9.00001 142.9 6.00001 140.1 6.00001C137.8 6.00001 136 6.90001 134.2 9.90001L132.7 12.5L131.5 14.6L131.3 14.8C128.8 17.6 126.7 19.5 124.3 20.5L131.1 9.10001H129.3C129.3 7.90001 128 6.20001 126.1 6.20001C124.5 6.20001 122.2 7.50001 120.9 9.60001L116.7 16.8C115.4 19 116.3 21 118.8 21C119.6 21 120.7 20.6 121.7 20L120.9 21.4C116.8 22.6 114.3 24.3 114.3 26.5C114.3 29.4 118.7 30 120.9 26.3L123.2 22.4C125.6 21.7 128 20.3 130.4 17.9C130.4 21.7 135.7 22.5 139 18.4H139.7C141.5 18.4 144.3 17.3 145.9 15.5C147.3 13.8 148.5 12.3 150.9 9.10001L151.3 9.60001C151.7 10.1 151.8 10.7 151.5 11.3L148.3 16.8C147 19 147.9 21 150.4 21C151.9 21 153.6 20 155.2 18.6C155.1 20 156.1 21 157.8 21C158.6 21 159.7 20.6 160.7 20L159.9 21.4C155.8 22.6 153.3 24.3 153.3 26.5C153.3 29.4 157.7 30 159.9 26.3L162.2 22.4C164.7 21.6 167.1 20.2 169.6 17.8C169.7 19.7 171.3 21 173.7 21C176.2 21 178.6 19.6 180.7 17.8C180.6 21.7 186 22.5 189.3 18.4H190C190.9 18.4 192.2 18.1 193.4 17.5C192.6 19.6 193.3 21 195.1 21C196.8 21 198.6 19.5 200.1 18.1C199.8 19.7 200.8 21 202.7 21C205.2 21 208.1 18.4 210.6 15.5C212.3 13.5 213.8 11.5 214.9 10.1C213.7 13.2 214.3 18.8 211.5 18.8C210.5 18.8 210.1 17.7 210.1 17.7L208.2 18.7C208.2 18.7 208.8 21.1 211.5 21.1C211.8 21.1 212.1 21.1 212.3 21H212.4C215.5 20.6 218.5 18.2 220.8 15.6C220.6 15.1 220.1 14.7 219.7 14.6L219.5 14.8C218.4 16 217.2 17.1 215.9 18C216.9 15.2 216.7 10.8 218.5 7.00001L216.2 5.80001C215 7.50001 212.2 11.4 209.5 14.5L209.3 14.7C207.1 17.2 205 19.2 203.7 19.2C203 19.2 202.7 18.7 203.4 17.6L209.8 6.40001H206.8L201.4 15.7C199.1 17.8 197.3 18.9 196.8 18.7C196 18.4 196.8 17.3 197.2 16.6L203.1 6.40001H200.1L195.4 14.5L195.2 14.7C193.8 16.2 192.2 16.9 190.6 16.9L193.4 12.1C195.2 9.00001 193.5 6.00001 190.7 6.00001C188.4 6.00001 186.6 6.90001 184.8 9.90001L183.3 12.5L182.1 14.6L181.9 14.8C179.7 17.3 176.9 19.3 174.8 19.3C172.9 19.3 171.8 18.2 173.2 15.7L173.5 15.2C175.4 16 179.1 15.6 181.4 11.8L181.8 11.1C183.4 8.30001 181.9 6.30001 179.4 6.30001C177 6.30001 175 7.6 173.7 9.7L170.8 14.7L170.6 14.9C168.1 17.7 166 19.6 163.6 20.6L170.4 9.2H168.6C168.6 8 167.3 6.30001 165.4 6.30001C163.8 6.30001 161.5 7.6 160.2 9.7L157.3 14.6L157.1 14.8C154.9 17.3 152.8 19.3 151.5 19.3C150.8 19.3 150.5 18.8 151.2 17.7L154.2 12.5C155.2 10.7 154.8 9.60001 153.8 8.50001L152.1 6.50001C151.7 6.00001 151.7 5.40001 152.3 4.80001L150.4 2.90001ZM140.1 7.90001C141.1 8.00001 141.6 9.20001 140.5 10.9L138.3 14.6H138.2C137.2 14.6 136.4 15.4 136.4 16.4C136.4 16.8 136.5 17.1 136.7 17.4V17.5C135.3 19.9 131.8 19.5 133.6 16.4L135.9 12.5L137.4 10.1C138.3 8.50001 139.3 7.90001 140.1 7.90001ZM190.3 7.90001C191.3 8.00001 191.8 9.20001 190.7 10.9L188.5 14.6H188.4C187.4 14.6 186.6 15.4 186.6 16.4C186.6 16.8 186.7 17.1 186.9 17.4V17.5C185.5 19.9 182 19.5 183.8 16.4L186.1 12.5L187.6 10.1C188.4 8.50001 189.5 7.90001 190.3 7.90001ZM178.6 8.30001C179.6 8.20001 180.1 9.20001 179.1 10.9L178.7 11.6C177.2 14 175.3 14 174.2 13.6L176.1 10.2C176.8 9 177.8 8.40001 178.6 8.30001ZM126.2 8.50001C127.2 8.50001 127.9 9.40001 127 10.9L124.7 14.9C122.9 17.8 121 19.2 119.8 19.2C119.1 19.2 118.8 18.7 119.5 17.6L123.7 10.3C124.4 9.10001 125.4 8.50001 126.2 8.50001ZM165.1 8.50001C166.1 8.50001 166.8 9.40001 165.9 10.9L163.6 14.9C161.8 17.8 159.9 19.2 158.7 19.2C158 19.2 157.7 18.7 158.4 17.6L162.6 10.3C163.3 9.10001 164.3 8.50001 165.1 8.50001ZM119.8 23.4L118.4 25.8C117.8 26.9 116.7 26.7 116.7 25.9C116.7 25.2 117.5 24.3 119.8 23.4ZM158.7 23.4L157.3 25.8C156.7 26.9 155.6 26.7 155.6 25.9C155.7 25.2 156.4 24.3 158.7 23.4ZM4 11.8H32.9V13.7H4V11.8ZM231.1 11.8H260V13.7H231.1V11.8Z" fill="#766458"/>
</g>
<defs>
<filter id="filter0_d_33515_806" x="0" y="0.100006" width="264" height="36.7773" filterUnits="userSpaceOnUse" color-interpolation-filters="sRGB">
<feFlood flood-opacity="0" result="BackgroundImageFix"/>
<feColorMatrix in="SourceAlpha" type="matrix" values="0 0 0 0 0 0 0 0 0 0 0 0 0 0 0 0 0 0 127 0" result="hardAlpha"/>
<feOffset dy="4"/>
<feGaussianBlur stdDeviation="2"/>
<feComposite in2="hardAlpha" operator="out"/>
<feColorMatrix type="matrix" values="0 0 0 0 0 0 0 0 0 0 0 0 0 0 0 0 0 0 0.25 0"/>
<feBlend mode="normal" in2="BackgroundImageFix" result="effect1_dropShadow_33515_806"/>
<feBlend mode="normal" in="SourceGraphic" in2="effect1_dropShadow_33515_806" result="shape"/>
</filter>
</defs>
</svg>
